Coordinates
version=1
nRows=4
nColumns=63
inDegrees=yes

Units are S.I. units (second, meters, Newtons, ...)
If the header above contains a line with 'inDegrees', this indicates whether rotational values are in degrees (yes) or radians (no).

endheader
time	pelvis_tilt	pelvis_list	pelvis_rotation	pelvis_tx	pelvis_ty	pelvis_tz	hip_flexion_r	hip_adduction_r	hip_rotation_r	knee_angle_r	knee_angle_r_beta	ankle_angle_r	subtalar_angle_r	mtp_angle_r	hip_flexion_l	hip_adduction_l	hip_rotation_l	knee_angle_l	knee_angle_l_beta	ankle_angle_l	subtalar_angle_l	mtp_angle_l	L5_S1_Flex_Ext	L5_S1_Lat_Bending	L5_S1_axial_rotation	L4_L5_Flex_Ext	L4_L5_Lat_Bending	L4_L5_axial_rotation	L3_L4_Flex_Ext	L3_L4_Lat_Bending	L3_L4_axial_rotation	L2_L3_Flex_Ext	L2_L3_Lat_Bending	L2_L3_axial_rotation	L1_L2_Flex_Ext	L1_L2_Lat_Bending	L1_L2_axial_rotation	L1_T12_Flex_Ext	L1_T12_Lat_Bending	L1_T12_axial_rotation	Abs_r3	Abs_r2	Abs_r1	Abs_t1	Abs_t2	neck_flexion	neck_bending	neck_rotation	arm_flex_r	arm_add_r	arm_rot_r	elbow_flex_r	pro_sup_r	wrist_flex_r	wrist_dev_r	arm_flex_l	arm_add_l	arm_rot_l	elbow_flex_l	pro_sup_l	wrist_flex_l	wrist_dev_l
      0.00000000	     -0.02807938	    -15.63915339	     86.63974519	      0.18674194	      0.61512000	      0.66474637	     20.32470624	      2.08550364	     -9.90613711	      5.00679449	      0.08738505	     18.97308343	      1.07041102	      0.00000000	     19.90182395	     -3.06096969	     -9.79421705	      3.95714107	      0.06906514	     25.54831987	     12.10865308	      0.00000000	      0.37128923	      0.60550331	      0.02562934	      0.68952122	      0.80531940	      0.02723118	      0.60999107	      1.47222074	      0.02723118	      0.42434646	      1.47222074	      0.02242567	      0.34477918	      1.23474234	      0.02082384	      0.21215466	      0.93792462	      0.01922201	      2.65208181	      6.84957451	      0.14254271	      0.00000000	      0.00000000	     28.21871685	     -1.31292573	     36.91288491	     13.18447158	     -6.95422315	     56.55372086	     39.25807034	     39.63579256	     -0.85173916	     -2.67616531	     14.88970370	     -2.27902465	     56.38436671	     32.35892701	     59.10849086	      8.17069669	     -2.19206382
      0.01666667	      0.09898439	    -14.75327242	     88.12920376	      0.18571321	      0.61635612	      0.66316744	     18.89790199	      1.83341465	    -10.52054048	      4.39962230	      0.07678790	     19.02221809	      0.04855962	      0.00000000	     19.03456742	     -2.67713712	     -8.65287906	      3.87110706	      0.06756356	     26.06497566	     12.55655586	      0.00000000	      0.31359618	      0.59465726	     -0.13704686	      0.58237946	      0.79089416	     -0.14561229	      0.51520716	      1.44584967	     -0.14561229	      0.35840907	      1.44584967	     -0.11991600	      0.29120541	      1.21262509	     -0.11135057	      0.17918886	      0.92112410	     -0.10278514	      2.23998614	      6.72688187	     -0.76221352	      0.00000000	      0.00000000	     28.14428926	     -3.31895219	     33.66469359	     13.42707145	     -6.64162215	     58.22231707	     37.93903906	     42.93158222	     -2.67007667	     -3.18632546	     15.00775579	     -1.69958566	     56.43150270	     31.44390493	     57.91205877	      7.94450757	      0.12376755
      0.03333333	      0.07469671	    -14.03699752	     89.16634339	      0.18500231	      0.61736729	      0.66170004	     17.67670263	      1.65625388	     -9.28480446	      3.72416263	      0.06499890	     18.47867102	     -3.00239363	      0.00000000	     18.23858007	     -2.27449840	     -7.04820976	      3.67883434	      0.06420777	     26.26068208	     11.83526755	      0.00000000	      0.25542286	      0.58234522	     -0.22758497	      0.47434579	      0.77451915	     -0.24180903	      0.41963422	      1.41591417	     -0.24180903	      0.29192279	      1.41591417	     -0.19913685	      0.23718567	      1.18751838	     -0.18491279	      0.14594862	      0.90205275	     -0.17068873	      1.82445995	      6.58760562	     -1.26575931	      0.00000000	      0.00000000	     28.07286881	     -4.64489426	     32.11058887	     12.94415781	     -6.21723439	     56.12573543	     37.05674078	     56.55839046	     -4.96565400	     -2.73370046	     15.60426132	     -1.43570872	     59.06736990	     30.63269864	     54.86098694	      7.17254136	      0.57806864
      0.05000000	      0.18582884	    -13.54562779	     90.31063457	      0.18419664	      0.61803354	      0.66018514	     16.64221078	      1.61015006	     -8.09041531	      2.95083243	      0.05150174	     17.74807690	     -6.08959894	      0.00000000	     17.71653761	     -2.04443170	     -5.71316651	      3.56981644	      0.06230505	     26.39446203	     11.72311953	      0.00000000	      0.22536625	      0.58295740	     -0.39730377	      0.41852766	      0.77533334	     -0.42213526	      0.37025421	      1.41740262	     -0.42213526	      0.25757109	      1.41740262	     -0.34764080	      0.20927510	      1.18876673	     -0.32280932	      0.12877427	      0.90300101	     -0.29797783	      1.60976858	      6.59453071	     -2.20968440	      0.00000000	      0.00000000	     28.01788596	     -5.35388513	     30.91771708	     12.80862775	     -5.95244878	     55.83866563	     36.51127963	     61.18040398	     -5.69983967	     -2.29449630	     15.71805242	     -1.21245096	     59.89621513	     29.99575997	     54.65339852	      6.91688184	      0.68637852
